<svg xmlns="http://www.w3.org/2000/svg" version="1.1" xmlns:xlink="http://www.w3.org/1999/xlink" xmlns:svgjs="http://svgjs.com/svgjs" width="100%" height="100%" viewBox="0 0 1000 600"><rect width="1000" height="600" x="0" y="0" fill="#d3d3d3"/><g><circle r="166.66666666666666" cx="355.19005839029944" cy="377.41230694085107" fill="#1a237e" transform="matrix(0.6630476753293817,0,0,0.6630476753293816,0,49.75765575608894)"/><path d="M197.14082330645934 388.88959609619576L197.14082330645934 362.14717339944195L270.777182686756 362.14717339944195L270.777182686756 388.88959609619576L197.14082330645934 388.88959609619576ZM355.057480845789 452.4123196974085Q322.06505851027543 452.4123196974085 305.4362715926055 434.00322985233436Q288.80748467493567 415.5941400072602 288.80748467493567 377.4123240322915L288.80748467493567 377.4123240322915Q288.80748467493567 339.2305080573228 305.4362715926055 320.82141821224866Q322.06505851027543 302.4123283671745 355.057480845789 302.4123283671745L355.057480845789 302.4123283671745Q388.0499031813026 302.4123283671745 404.7165688846619 320.82141821224866Q421.3453558023318 339.2305080573228 421.3453558023318 377.4123240322915L421.3453558023318 377.4123240322915Q421.3453558023318 415.5941400072602 404.7165688846619 434.00322985233436Q388.0499031813026 452.4123196974085 355.057480845789 452.4123196974085L355.057480845789 452.4123196974085ZM355.057480845789 432.52595721044565Q376.8756614029139 432.52595721044565 386.68626689648227 419.8365640044789Q396.5347511757401 407.1471707985121 396.5347511757401 378.5108088172857L396.5347511757401 378.5108088172857L396.5347511757401 376.3517180329868Q396.5347511757401 347.7153560517603 386.68626689648227 335.02596284579363Q376.8756614029139 322.33656963982685 355.057480845789 322.33656963982685L355.057480845789 322.33656963982685Q333.239300288664 322.33656963982685 323.4286947950957 335.02596284579363Q313.6180893015274 347.7153560517603 313.6180893015274 376.3517180329868L313.6180893015274 376.3517180329868L313.6180893015274 378.5108088172857Q313.6180893015274 407.1471707985121 323.4286947950957 419.8365640044789Q333.239300288664 432.52595721044565 355.057480845789 432.52595721044565L355.057480845789 432.52595721044565ZM439.60293050464816 388.88959609619576L439.60293050464816 362.14717339944195L513.2392898849448 362.14717339944195L513.2392898849448 388.88959609619576L439.60293050464816 388.88959609619576Z " fill="#ffffff" transform="matrix(0.6630476753293817,0,0,0.6630476753293816,0,49.75765575608894)"/><path d="M673.8512217729755 452.4123176128453L673.8512217729755 452.4123176128453Q652.2991670207135 452.4123176128453 636.9418873643558 443.2786259598146Q621.584607707998 434.14493430678374 613.40174199992 417.34700927928554Q605.1900633844191 400.54908425178724 605.1900633844191 377.2970679615795L605.1900633844191 377.2970679615795Q605.1900633844191 354.2755549307542 613.40174199992 337.4776299032559Q621.584607707998 320.6797048757577 636.9418873643558 311.54601322272686Q652.2991670207135 302.412321569696 673.8512217729755 302.412321569696L673.8512217729755 302.412321569696Q686.7305913909715 302.412321569696 698.342193082364 306.15799953466137Q709.9537947737565 309.87486459220383 718.4536024634855 316.7323365588327L718.4536024634855 316.7323365588327Q721.9975900764912 319.2102465971943 722.5162224101017 322.55254385824026Q723.0348547437123 325.8660282118634 721.3637061131893 328.4591898799164Q719.7213703900891 331.05235154796924 716.6960151106941 331.77267423353953Q713.6994727387219 332.4929969191098 709.9537947737565 329.8133965287884L709.9537947737565 329.8133965287884Q695.2303990807006 317.9712915780135 674.2834153843177 317.9712915780135L674.2834153843177 317.9712915780135Q649.5907537229693 317.9712915780135 636.5096937530136 333.530261586331Q623.4574466904807 349.08923159464837 623.4574466904807 377.2970679615795L623.4574466904807 377.2970679615795Q623.4574466904807 405.73540758789306 636.5096937530136 421.29437759621044Q649.5907537229693 436.8533476045279 674.2834153843177 436.8533476045279L674.2834153843177 436.8533476045279Q695.2303990807006 436.8533476045279 710.3859883850987 424.80955230179325L710.3859883850987 424.80955230179325Q714.1028534426412 422.3316422634316 717.1282087220362 422.9367133193107Q720.1247510940085 423.5705972826124 721.6806480948402 426.04850732097407Q723.236545095672 428.5552302667586 722.8331643917526 431.6670242684221Q722.4009707804105 434.7788182700856 719.289176778747 437.25672830844724L719.289176778747 437.25672830844724Q710.3859883850987 444.71927133095505 698.7455737862833 448.5802009256116Q687.1339720948909 452.4123176128453 673.8512217729755 452.4123176128453ZM781.3233664600571 452.4123176128453L781.3233664600571 452.4123176128453Q745.0191031073164 452.4123176128453 745.0191031073164 412.36237629513937L745.0191031073164 412.36237629513937L745.0191031073164 356.7822778765387Q745.0191031073164 348.25365727938686 753.3172204450857 348.25365727938686L753.3172204450857 348.25365727938686Q761.8170281348147 348.25365727938686 761.8170281348147 356.7822778765387L761.8170281348147 356.7822778765387L761.8170281348147 412.1606859431797Q761.8170281348147 425.64512661705476 767.3202934525714 432.0704049723414Q772.8235587703282 438.49568332762806 784.6368508136802 438.49568332762806L784.6368508136802 438.49568332762806Q797.5162204316764 438.49568332762806 805.5838345100632 429.90943691563075Q813.6802614958729 421.29437759621044 813.6802614958729 406.9743626070739L813.6802614958729 406.9743626070739L813.6802614958729 356.7822778765387Q813.6802614958729 348.25365727938686 822.1800691856018 348.25365727938686L822.1800691856018 348.25365727938686Q830.478186523371 348.25365727938686 830.478186523371 356.7822778765387L830.478186523371 356.7822778765387L830.478186523371 443.2786259598146Q830.478186523371 451.9801240015032 822.4105724449843 451.9801240015032L822.4105724449843 451.9801240015032Q814.1124551072149 451.9801240015032 814.1124551072149 443.2786259598146L814.1124551072149 443.2786259598146L814.1124551072149 433.5398632509048Q809.3295124750284 442.6447419965127 800.7144531556083 447.54293625839045Q792.0993938361881 452.4123176128453 781.3233664600571 452.4123176128453ZM902.4816421729736 452.4123176128453L902.4816421729736 452.4123176128453Q884.6464524782541 452.4123176128453 875.7144511771829 442.9616839781636Q866.7824498761119 433.5398632509048 866.7824498761119 415.6758606487625L866.7824498761119 415.6758606487625L866.7824498761119 362.7753626204832L852.8946284983174 362.7753626204832Q845.6337758277692 362.7753626204832 845.6337758277692 356.1483939132369L845.6337758277692 356.1483939132369Q845.6337758277692 349.7231155579502 852.8946284983174 349.7231155579502L852.8946284983174 349.7231155579502L866.7824498761119 349.7231155579502L866.7824498761119 325.8660282118634Q866.7824498761119 317.3662205221345 875.3110704732636 317.3662205221345L875.3110704732636 317.3662205221345Q883.6091878110328 317.3662205221345 883.6091878110328 325.8660282118634L883.6091878110328 325.8660282118634L883.6091878110328 349.7231155579502L909.7424948435216 349.7231155579502Q917.0033475140698 349.7231155579502 917.0033475140698 356.1483939132369L917.0033475140698 356.1483939132369Q917.0033475140698 362.7753626204832 909.7424948435216 362.7753626204832L909.7424948435216 362.7753626204832L883.6091878110328 362.7753626204832L883.6091878110328 414.0335249256623Q883.6091878110328 425.8468169690144 888.5650078877562 431.98396625007297Q893.5496408719024 438.09230262370875 904.7578618593755 438.09230262370875L904.7578618593755 438.09230262370875Q908.7052301763005 438.09230262370875 911.3848305666218 437.25672830844724Q914.093243864366 436.4211539931857 916.1677731988083 436.4211539931857L916.1677731988083 436.4211539931857Q918.040612181291 436.21946364122607 919.2795672004718 437.68892191978944Q920.5185222196526 439.1295672909299 920.5185222196526 442.6447419965127L920.5185222196526 442.6447419965127Q920.5185222196526 445.15146494229725 919.5965091821228 447.2259942767396Q918.64568323717 449.3005236111818 916.3694635507679 450.1360979264433L916.3694635507679 450.1360979264433Q913.8915535124063 450.94285933428205 909.8289335657901 451.6919949272751Q905.7951265265966 452.4123176128453 902.4816421729736 452.4123176128453ZM994.5965072036973 452.4123176128453L994.5965072036973 452.4123176128453Q965.7547868734645 452.4123176128453 950.8008879210261 437.1702895861788Q935.8758018760104 421.8994486520895 935.8758018760104 392.6543476179372L935.8758018760104 392.6543476179372L935.8758018760104 311.54601322272686Q935.8758018760104 302.8445151810382 944.3756095657393 302.8445151810382L944.3756095657393 302.8445151810382Q952.8754172554684 302.8445151810382 952.8754172554684 311.54601322272686L952.8754172554684 311.54601322272686L952.8754172554684 391.8187733026757Q952.8754172554684 437.25672830844724 994.5965072036973 437.25672830844724L994.5965072036973 437.25672830844724Q1035.8565906331614 437.25672830844724 1035.8565906331614 391.8187733026757L1035.8565906331614 391.8187733026757L1035.8565906331614 311.54601322272686Q1035.8565906331614 302.8445151810382 1044.5869015822727 302.8445151810382L1044.5869015822727 302.8445151810382Q1052.885018920042 302.8445151810382 1052.885018920042 311.54601322272686L1052.885018920042 311.54601322272686L1052.885018920042 392.6543476179372Q1052.885018920042 421.8994486520895 1038.046371597295 437.1702895861788Q1023.2077242745478 452.4123176128453 994.5965072036973 452.4123176128453ZM1096.450134943331 451.9801240015032L1096.450134943331 451.9801240015032Q1087.9503272536022 451.9801240015032 1087.9503272536022 443.0769356078548L1087.9503272536022 443.0769356078548L1087.9503272536022 312.98665859386733Q1087.9503272536022 304.2851605521787 1096.6518252952908 304.2851605521787L1096.6518252952908 304.2851605521787L1145.8066453586048 304.2851605521787Q1169.4620423527317 304.2851605521787 1182.0244699890768 315.2916911876922Q1194.5580847179995 326.26940891578283 1194.5580847179995 346.6113215562867L1194.5580847179995 346.6113215562867Q1194.5580847179995 362.7753626204832 1185.7413350466195 373.14800929269484Q1176.9245853752395 383.5206559649064 1160.7605443110433 386.6324499665699L1160.7605443110433 386.6324499665699Q1170.2976166679932 389.9747472276159 1177.1550886346222 402.8253039381892L1177.1550886346222 402.8253039381892L1197.0648076637838 439.9651416061914Q1199.3410273501859 444.31589062703574 1197.9003819790453 448.1480073142694Q1196.4309237004818 451.9801240015032 1191.244600364376 451.9801240015032L1191.244600364376 451.9801240015032Q1187.7294256587934 451.9801240015032 1185.4532059723913 450.4242270006714Q1183.1481733785668 448.8683299998397 1181.5058376554664 445.55484564621656L1181.5058376554664 445.55484564621656L1158.8877053285605 403.66087825345073Q1154.104762696374 394.72887695237955 1147.881174693047 391.73233458040727Q1141.6575866897201 388.7069793010122 1131.515443276891 388.7069793010122L1131.515443276891 388.7069793010122L1104.94994263306 388.7069793010122L1104.94994263306 443.0769356078548Q1104.94994263306 451.9801240015032 1096.450134943331 451.9801240015032ZM1104.94994263306 318.40348518935565L1104.94994263306 375.22253862713717L1143.3287353202431 375.22253862713717Q1177.760159690501 375.22253862713717 1177.760159690501 346.6113215562867L1177.760159690501 346.6113215562867Q1177.760159690501 318.40348518935565 1143.3287353202431 318.40348518935565L1143.3287353202431 318.40348518935565L1104.94994263306 318.40348518935565ZM1311.7689921139906 450.53947863036274L1235.443600350967 450.53947863036274Q1226.7132894018553 450.53947863036274 1226.7132894018553 441.60747732929156L1226.7132894018553 441.60747732929156L1226.7132894018553 312.17989718602865Q1226.7132894018553 303.24789588495753 1235.2419099990072 303.24789588495753L1235.2419099990072 303.24789588495753Q1243.7417176887363 303.24789588495753 1243.7417176887363 312.17989718602865L1243.7417176887363 312.17989718602865L1243.7417176887363 435.6143925853471L1311.7689921139906 435.6143925853471Q1319.6637287478409 435.6143925853471 1319.6637287478409 443.0769356078548L1319.6637287478409 443.0769356078548Q1319.6637287478409 450.53947863036274 1311.7689921139906 450.53947863036274L1311.7689921139906 450.53947863036274Z " fill="#1a237e" transform="matrix(0.6630476753293817,0,0,0.6630476753293816,0,49.75765575608894)"/></g></svg>